<?xml version="1.0" encoding="UTF-8" standalone="no"?>
<svg
   xmlns:dc="http://purl.org/dc/elements/1.1/"
   xmlns:cc="http://creativecommons.org/ns#"
   xmlns:rdf="http://www.w3.org/1999/02/22-rdf-syntax-ns#"
   xmlns:svg="http://www.w3.org/2000/svg"
   xmlns="http://www.w3.org/2000/svg"
   xmlns:sodipodi="http://sodipodi.sourceforge.net/DTD/sodipodi-0.dtd"
   xmlns:inkscape="http://www.inkscape.org/namespaces/inkscape"
   fill="#000000"
   viewBox="0 0 50 50"
   width="50px"
   height="50px"
   version="1.1"
   id="svg1470"
   sodipodi:docname="icons8-instagram.svg"
   inkscape:version="1.0.2-2 (e86c870879, 2021-01-15)">
  <metadata
     id="metadata1476">
    <rdf:RDF>
      <cc:Work
         rdf:about="">
        <dc:format>image/svg+xml</dc:format>
        <dc:type
           rdf:resource="http://purl.org/dc/dcmitype/StillImage" />
      </cc:Work>
    </rdf:RDF>
  </metadata>
  <defs
     id="defs1474" />
  <sodipodi:namedview
     pagecolor="#ffffff"
     bordercolor="#666666"
     borderopacity="1"
     objecttolerance="10"
     gridtolerance="10"
     guidetolerance="10"
     inkscape:pageopacity="0"
     inkscape:pageshadow="2"
     inkscape:window-width="1280"
     inkscape:window-height="737"
     id="namedview1472"
     showgrid="false"
     inkscape:zoom="6.0594029"
     inkscape:cx="57.058739"
     inkscape:cy="16.878173"
     inkscape:window-x="-8"
     inkscape:window-y="-8"
     inkscape:window-maximized="1"
     inkscape:current-layer="svg1470" />
  <path
     fill="none"
     stroke="#000000"
     stroke-miterlimit="10"
     stroke-width="2"
     d="M16,46h18c6.627,0,12-5.373,12-12V16c0-6.627-5.373-12-12-12H16C9.373,4,4,9.373,4,16v18C4,40.627,9.373,46,16,46z"
     id="path1464"
     style="stroke:#d93611;stroke-opacity:1" />
  <path
     fill="none"
     stroke="#000000"
     stroke-miterlimit="10"
     stroke-width="2"
     d="M25 15A10 10 0 1 0 25 35A10 10 0 1 0 25 15Z"
     id="path1466"
     style="stroke:#d93611;stroke-opacity:1" />
  <path
     d="M37 11A2 2 0 1 0 37 15A2 2 0 1 0 37 11Z"
     id="path1468"
     style="stroke:#d93611;stroke-opacity:1;fill:none;fill-opacity:1" />
</svg>
