<?xml version="1.0" encoding="UTF-8" standalone="no"?>
<svg
   xmlns:dc="http://purl.org/dc/elements/1.1/"
   xmlns:cc="http://creativecommons.org/ns#"
   xmlns:rdf="http://www.w3.org/1999/02/22-rdf-syntax-ns#"
   xmlns:svg="http://www.w3.org/2000/svg"
   xmlns="http://www.w3.org/2000/svg"
   xmlns:sodipodi="http://sodipodi.sourceforge.net/DTD/sodipodi-0.dtd"
   xmlns:inkscape="http://www.inkscape.org/namespaces/inkscape"
   fill="#000000"
   viewBox="0 0 50 50"
   width="50px"
   height="50px"
   version="1.1"
   id="svg2087"
   sodipodi:docname="icons8-github.svg"
   inkscape:version="1.0.2-2 (e86c870879, 2021-01-15)">
  <metadata
     id="metadata2093">
    <rdf:RDF>
      <cc:Work
         rdf:about="">
        <dc:format>image/svg+xml</dc:format>
        <dc:type
           rdf:resource="http://purl.org/dc/dcmitype/StillImage" />
      </cc:Work>
    </rdf:RDF>
  </metadata>
  <defs
     id="defs2091" />
  <sodipodi:namedview
     pagecolor="#ffffff"
     bordercolor="#666666"
     borderopacity="1"
     objecttolerance="10"
     gridtolerance="10"
     guidetolerance="10"
     inkscape:pageopacity="0"
     inkscape:pageshadow="2"
     inkscape:window-width="1280"
     inkscape:window-height="737"
     id="namedview2089"
     showgrid="false"
     inkscape:zoom="6.0633862"
     inkscape:cx="45.691288"
     inkscape:cy="28.787879"
     inkscape:window-x="-8"
     inkscape:window-y="-8"
     inkscape:window-maximized="1"
     inkscape:current-layer="svg2087" />
  <path
     fill="none"
     stroke="#000000"
     stroke-miterlimit="10"
     stroke-width="2"
     d="M3,25c0,12.148,9.852,22,22,22s22-9.852,22-22S37.148,3,25,3S3,12.852,3,25z"
     id="path2079"
     style="stroke:#d93611;stroke-opacity:1" />
  <path
     fill="none"
     stroke="#000000"
     stroke-linecap="round"
     stroke-linejoin="round"
     stroke-miterlimit="10"
     d="M38 25.655c4.51-.282 7.58-.017 9 .163M37.401 27.519c5.169 0 8.498.675 9.699.967M3 25.802c1.42-.181 4.49-.445 9-.163M2.999 28.476c1.199-.292 4.528-.968 9.701-.968"
     id="path2081"
     style="stroke:#d93611;stroke-opacity:1" />
  <path
     fill="none"
     stroke="#000000"
     stroke-miterlimit="10"
     stroke-width="2"
     d="M36.3 18.6c.5-1.6 1.3-5.2-.2-6.6-2.7 0-4.6 1.3-5.5 2.1C29 13.4 27.1 13 25 13s-4 .4-5.7 1.1c-.9-.8-2.8-2.1-5.5-2.1-1.4 1.3-.7 4.9-.2 6.6-1.1 1.5-1.7 3.3-1.7 5 0 5.5 4.2 9.4 13 9.4s13-3.9 13-9.4C38 21.8 37.4 20.1 36.3 18.6zM19 39c0 0-3 0-3.6 0-1.5 0-2.8-.6-3.4-1.8-.7-1.3-1-3.5-2.8-4.7C8.9 32.3 9.1 32 9.7 32c.6.1 1.9.9 2.7 2 .9 1.1 1.8 2 3.4 2s3.8.1 4.5-.7"
     id="path2083"
     style="stroke:#d93611;stroke-opacity:1" />
  <path
     fill="none"
     stroke="#000000"
     stroke-miterlimit="10"
     stroke-width="2"
     d="M31,45.7v-6.1c0-2.7-1.9-6.5-4.5-6.5h-2.8c-2.6,0-4.7,3.8-4.7,6.5V46"
     id="path2085"
     style="stroke:#d93611;stroke-opacity:1" />
</svg>
