<?xml version="1.0" encoding="UTF-8" standalone="no"?>
<svg
   xmlns:dc="http://purl.org/dc/elements/1.1/"
   xmlns:cc="http://creativecommons.org/ns#"
   xmlns:rdf="http://www.w3.org/1999/02/22-rdf-syntax-ns#"
   xmlns:svg="http://www.w3.org/2000/svg"
   xmlns="http://www.w3.org/2000/svg"
   xmlns:sodipodi="http://sodipodi.sourceforge.net/DTD/sodipodi-0.dtd"
   xmlns:inkscape="http://www.inkscape.org/namespaces/inkscape"
   fill="#000000"
   viewBox="0 0 50 50"
   width="50px"
   height="50px"
   version="1.1"
   id="svg881"
   sodipodi:docname="icons8-linkedin.svg"
   inkscape:version="1.0.2-2 (e86c870879, 2021-01-15)">
  <metadata
     id="metadata887">
    <rdf:RDF>
      <cc:Work
         rdf:about="">
        <dc:format>image/svg+xml</dc:format>
        <dc:type
           rdf:resource="http://purl.org/dc/dcmitype/StillImage" />
      </cc:Work>
    </rdf:RDF>
  </metadata>
  <defs
     id="defs885" />
  <sodipodi:namedview
     pagecolor="#ffffff"
     bordercolor="#666666"
     borderopacity="1"
     objecttolerance="10"
     gridtolerance="10"
     guidetolerance="10"
     inkscape:pageopacity="0"
     inkscape:pageshadow="2"
     inkscape:window-width="1280"
     inkscape:window-height="737"
     id="namedview883"
     showgrid="false"
     inkscape:zoom="6.4985765"
     inkscape:cx="16.069416"
     inkscape:cy="25"
     inkscape:window-x="-8"
     inkscape:window-y="-8"
     inkscape:window-maximized="1"
     inkscape:current-layer="svg881" />
  <path
     fill="none"
     stroke="#000000"
     stroke-linecap="round"
     stroke-linejoin="round"
     stroke-miterlimit="10"
     stroke-width="2"
     d="M9,45h32c2.209,0,4-1.791,4-4V9c0-2.209-1.791-4-4-4H9C6.791,5,5,6.791,5,9v32C5,43.209,6.791,45,9,45z"
     id="path873"
     style="stroke:#d93611;stroke-opacity:1" />
  <path
     fill="none"
     stroke="#000000"
     stroke-linecap="round"
     stroke-linejoin="round"
     stroke-miterlimit="10"
     stroke-width="2"
     d="M11 20L17 20 17 33.135 17 39 11 39z"
     id="path875"
     style="stroke:#d93611;stroke-opacity:1" />
  <path
     fill="none"
     stroke="#000000"
     stroke-linecap="round"
     stroke-linejoin="round"
     stroke-miterlimit="10"
     stroke-width="1.976"
     d="M14,17L14,17c-1.8,0-3-1.133-3-2.533S12.2,12,14,12s2.925,1.067,3,2.467C17,15.867,15.875,17,14,17z"
     id="path877"
     style="stroke:#d93611;stroke-opacity:1" />
  <path
     fill="none"
     stroke="#000000"
     stroke-linecap="round"
     stroke-linejoin="round"
     stroke-miterlimit="10"
     stroke-width="2"
     d="M39,39h-6c0,0,0-9.257,0-10c0-2-1-4-3.5-4.043C27.022,24.913,26,27,26,29c0,0.909,0,10,0,10h-6V20h6v2.561c0,0,1.93-2.561,5.813-2.561C35.778,20,39,22.726,39,28.261V39z"
     id="path879"
     style="stroke:#d93611;stroke-opacity:1" />
</svg>
